<?xml version="1.0" standalone="no"?><!DOCTYPE svg PUBLIC "-//W3C//DTD SVG 1.1//EN" "http://www.w3.org/Graphics/SVG/1.1/DTD/svg11.dtd"><svg t="1609777154890" class="icon" viewBox="0 0 1024 1024" version="1.1" xmlns="http://www.w3.org/2000/svg" p-id="2270" xmlns:xlink="http://www.w3.org/1999/xlink" width="200" height="200"><defs><style type="text/css"></style></defs><path d="M398.19131221 777.55360597a34.44516523 34.44516523 0 0 1-24.67018638-10.24045511 34.91064035 34.91064035 0 0 1 0-49.57310862l293.24938012-293.94759453a53.29691079 53.29691079 0 0 0 15.59341967-38.16896625A53.99512405 53.99512405 0 0 0 627.67058944 332.09383253a53.06417379 53.06417379 0 0 0-37.23801714 16.29163179L511.30178674 427.98172501a34.91064035 34.91064035 0 1 1-49.34037163-49.10763463l79.82899769-80.29447281a124.0491429 124.0491429 0 0 1 175.01867805 0 122.65271751 122.65271751 0 0 1 36.30706688 87.50933902 121.02355399 121.02355399 0 0 1-36.07432875 87.50933902L422.86149746 767.31315086a34.21242823 34.21242823 0 0 1-24.67018525 10.24045511z" fill="#12DBDB" p-id="2271"></path><path d="M349.78188971 944.65920569a188.05198393 188.05198393 0 0 1-133.12590848-320.94515542L464.75426589 375.61576448a34.91064035 34.91064035 0 1 1 49.34037276 49.34037163L265.99635285 674.21811029a118.46344021 118.46344021 0 0 0 83.78553686 201.78350194 116.36880157 116.36880157 0 0 0 83.55279986-34.67790336l372.38016682-372.38016569a34.91064035 34.91064035 0 1 1 49.34037163 49.34037163l-371.21647844 372.38016682a186.19008341 186.19008341 0 0 1-132.89317148 55.15881131z" fill="#474747" p-id="2272"></path><path d="M627.67058944 729.3769216a35.14337849 35.14337849 0 0 1-23.27376099-59.58082674l209.46384326-211.32574379a179.67343047 179.67343047 0 0 0 0-253.68398848l-3.2583259-3.2583259a179.67343047 179.67343047 0 0 0-253.68398848 0L146.83469938 613.00812003a34.91064035 34.91064035 0 1 1-49.34037163-49.34037162L507.8107227 152.42040206A249.49471118 249.49471118 0 0 1 860.40819257 151.95492693l3.25832704 3.49106404a249.02923605 249.02923605 0 0 1 0 352.13199474l-210.8602698 211.55848192a35.60885362 35.60885362 0 0 1-25.13566037 10.24045397z" fill="#474747" p-id="2273"></path></svg>